<svg width="79" height="27" viewBox="0 0 79 27" fill="none" xmlns="http://www.w3.org/2000/svg">
<path d="M9.75461 0.254891C8.70089 0.255179 7.69043 0.648883 6.94533 1.34946C6.20024 2.05003 5.78153 3.00013 5.78122 3.99088V5.68807H3.97618C3.454 5.68766 2.93686 5.78408 2.45435 5.97179C1.97185 6.15949 1.53345 6.43483 1.16422 6.78201C0.794998 7.12918 0.502206 7.54142 0.302595 7.9951C0.102985 8.4488 0.000475699 8.93505 0.000932214 9.42602V13.1607H5.78028V16.5551H3.97525C2.92123 16.555 1.91032 16.9485 1.16484 17.6491C0.419366 18.3497 0.000368188 19.3 0 20.291V26.7455H3.97711C4.49879 26.7453 5.01529 26.6485 5.49717 26.4605C5.97902 26.2726 6.41677 25.9972 6.78546 25.6502C7.15413 25.3032 7.44648 24.8912 7.64583 24.4379C7.84516 23.9845 7.94759 23.4989 7.94725 23.0084H7.95235V20.5425L7.94171 20.5438V4.83404L7.9505 4.836V3.99153C7.95141 3.54125 8.14173 3.10959 8.47991 2.79076C8.81806 2.47194 9.27664 2.29184 9.75554 2.28977H16.6584V3.99153C16.657 4.44161 16.466 4.87283 16.1273 5.19087C15.7886 5.50891 15.3298 5.68792 14.8511 5.68873H8.7674V7.72579H14.8501C15.9039 7.72585 16.9144 7.33234 17.6596 6.63183C18.4047 5.93132 18.8234 4.9812 18.8235 3.99045V0.254456L9.75461 0.254891ZM5.78122 11.1234H2.16975V9.42623C2.17054 8.97542 2.36108 8.54324 2.69975 8.22411C3.0384 7.905 3.49765 7.72489 3.97711 7.72318H5.78215L5.78122 11.1234ZM5.78122 23.0103C5.78042 23.4603 5.59005 23.8918 5.25177 24.2101C4.91348 24.5285 4.45482 24.708 3.97618 24.7091H2.16882V20.2921C2.16926 19.8418 2.35989 19.41 2.6988 19.0918C3.03773 18.7735 3.49717 18.5948 3.97618 18.595H5.78122V23.0103ZM8.7674 13.1605H13.3263V14.8594C13.3245 15.3094 13.1334 15.7405 12.7948 16.0584C12.4562 16.3764 11.9975 16.5555 11.5189 16.5566H8.7674V18.595H11.5198C12.0417 18.5952 12.5585 18.4988 13.0407 18.3111C13.5229 18.1235 13.9611 17.8483 14.3301 17.5013C14.6991 17.1543 14.9918 16.7424 15.1913 16.289C15.3909 15.8356 15.4935 15.3497 15.4932 14.859H15.4951V11.123H8.7674V13.1605Z" fill="#6C63FF"/>
<path d="M30.6609 11.5445H28.2117V19.7921H25.3821V11.5445H23.8235V10.1807L25.3821 9.41998V8.65924C25.3821 7.47793 25.6728 6.61513 26.2542 6.07086C26.8355 5.52659 27.7664 5.25446 29.0466 5.25446C30.0238 5.25446 30.8928 5.3998 31.6536 5.69049L30.9299 7.76862C30.3609 7.58925 29.8352 7.49957 29.3528 7.49957C28.9508 7.49957 28.6601 7.62018 28.4807 7.86139C28.3014 8.09642 28.2117 8.39948 28.2117 8.77057V9.41998H30.6609V11.5445Z" fill="#2F2E41"/>
<path d="M39.1414 19.7921L38.761 18.4654H38.6125C38.3095 18.9478 37.8796 19.322 37.323 19.588C36.7664 19.8477 36.1324 19.9776 35.4211 19.9776C34.2027 19.9776 33.2843 19.6529 32.6658 19.0035C32.0473 18.3479 31.738 17.4078 31.738 16.1832V9.41998H34.5676V15.4781C34.5676 16.2265 34.7006 16.7893 34.9666 17.1666C35.2325 17.5377 35.6562 17.7232 36.2375 17.7232C37.0292 17.7232 37.6013 17.4603 37.9539 16.9346C38.3064 16.4027 38.4827 15.5245 38.4827 14.2999V9.41998H41.3123V19.7921H39.1414Z" fill="#2F2E41"/>
<path d="M51.0173 16.712C51.0173 17.7758 50.6462 18.586 49.9041 19.1426C49.1681 19.6993 48.064 19.9776 46.592 19.9776C45.8375 19.9776 45.1943 19.925 44.6624 19.8199C44.1305 19.7209 43.6326 19.5725 43.1687 19.3746V17.0367C43.6944 17.2841 44.2851 17.4913 44.9407 17.6583C45.6025 17.8253 46.1838 17.9088 46.6848 17.9088C47.7115 17.9088 48.2249 17.6119 48.2249 17.0181C48.2249 16.7955 48.1568 16.6161 48.0208 16.48C47.8847 16.3378 47.6497 16.1801 47.3157 16.0069C46.9817 15.8275 46.5364 15.6203 45.9797 15.3853C45.1819 15.0513 44.5943 14.7421 44.217 14.4576C43.8459 14.1731 43.5738 13.8484 43.4006 13.4835C43.2336 13.1124 43.1501 12.6578 43.1501 12.1197C43.1501 11.1981 43.5058 10.4869 44.217 9.9859C44.9345 9.47874 45.9488 9.22516 47.26 9.22516C48.5094 9.22516 49.7247 9.49729 50.906 10.0416L50.0525 12.0826C49.533 11.8599 49.0474 11.6775 48.5959 11.5352C48.1444 11.393 47.6837 11.3218 47.2136 11.3218C46.3787 11.3218 45.9612 11.5476 45.9612 11.9991C45.9612 12.2527 46.0942 12.4722 46.3601 12.6578C46.6322 12.8433 47.2229 13.1186 48.1321 13.4835C48.9423 13.8113 49.5361 14.1174 49.9133 14.4019C50.2906 14.6864 50.5689 15.0142 50.7483 15.3853C50.9277 15.7564 51.0173 16.1986 51.0173 16.712Z" fill="#2F2E41"/>
<path d="M57.0208 11.2383C56.4208 11.2383 55.9508 11.4301 55.6106 11.8135C55.2704 12.1908 55.0756 12.7289 55.0261 13.4278H58.9968C58.9845 12.7289 58.802 12.1908 58.4495 11.8135C58.0969 11.4301 57.6207 11.2383 57.0208 11.2383ZM57.4197 19.9776C55.7498 19.9776 54.4447 19.5168 53.5046 18.5953C52.5645 17.6737 52.0945 16.3687 52.0945 14.6802C52.0945 12.9423 52.5274 11.6002 53.3933 10.6539C54.2654 9.7014 55.4683 9.22516 57.0022 9.22516C58.468 9.22516 59.6091 9.64264 60.4255 10.4776C61.2419 11.3126 61.6501 12.466 61.6501 13.938V15.3111H54.9612C54.9921 16.1151 55.2302 16.7429 55.6755 17.1944C56.1208 17.6459 56.7455 17.8716 57.5496 17.8716C58.1742 17.8716 58.7649 17.8067 59.3215 17.6768C59.8782 17.5469 60.4596 17.3397 61.0657 17.0552V19.2447C60.5709 19.4921 60.0421 19.6745 59.4792 19.7921C58.9164 19.9158 58.2299 19.9776 57.4197 19.9776Z" fill="#2F2E41"/>
<path d="M66.2805 19.7921H63.4509V5.35651H66.2805V19.7921Z" fill="#2F2E41"/>
<path d="M67.2742 9.41998H70.3728L72.3303 15.2554C72.4973 15.7626 72.6117 16.3625 72.6736 17.0552H72.7292C72.7973 16.4182 72.9303 15.8183 73.1282 15.2554L75.0486 9.41998H78.0823L73.6941 21.1187C73.2921 22.2011 72.7169 23.0113 71.9685 23.5494C71.2263 24.0875 70.3573 24.3565 69.3616 24.3565C68.873 24.3565 68.3936 24.3039 67.9236 24.1988V21.9537C68.2638 22.0341 68.6348 22.0743 69.0369 22.0743C69.5378 22.0743 69.9739 21.9197 70.345 21.6104C70.7222 21.3074 71.016 20.8466 71.2263 20.2281L71.3933 19.7178L67.2742 9.41998Z" fill="#2F2E41"/>
</svg>
